<svg
  width="12"
  height="12"
  viewBox="0 0 12 12"
  fill="none"
  xmlns="http://www.w3.org/2000/svg"
>
  <path
    d="M2.25 9.75H2.8L8.3375 4.2125L7.7875 3.6625L2.25 9.2V9.75ZM9.925 3.675L8.325 2.075L8.85 1.55C8.99167 1.40833 9.16667 1.3375 9.375 1.3375C9.58333 1.3375 9.75833 1.40833 9.9 1.55L10.45 2.1C10.5917 2.24167 10.6625 2.41667 10.6625 2.625C10.6625 2.83333 10.5917 3.00833 10.45 3.15L9.925 3.675ZM9.4 4.2L3.1 10.5H1.5V8.9L7.8 2.6L9.4 4.2ZM8.0625 3.9375L7.7875 3.6625L8.3375 4.2125L8.0625 3.9375Z"
    fill="black"
  />
  </svg>
