<svg
  width="12"
  height="12"
  viewBox="0 0 12 12"
  fill="none"
  xmlns="http://www.w3.org/2000/svg"
>
  <path
    d="M6 11C5.375 11 4.78958 10.8833 4.24375 10.65C3.69792 10.4167 3.22083 10.0958 2.8125 9.6875C2.40417 9.27916 2.08333 8.80208 1.85 8.25625C1.61667 7.71041 1.5 7.125 1.5 6.5H2.25C2.25 7.54166 2.61458 8.42708 3.34375 9.15625C4.07292 9.88541 4.95833 10.25 6 10.25C7.04167 10.25 7.92708 9.88541 8.65625 9.15625C9.38542 8.42708 9.75 7.54166 9.75 6.5C9.75 5.45833 9.39583 4.57291 8.6875 3.84375C7.97917 3.11458 7.10417 2.75 6.0625 2.75H5.775L6.6875 3.6625L6.175 4.1875L4.3375 2.35L6.175 0.512497L6.6875 1.025L5.7125 2H6C6.625 2 7.21042 2.11666 7.75625 2.35C8.30208 2.58333 8.77917 2.90416 9.1875 3.3125C9.59583 3.72083 9.91667 4.19791 10.15 4.74375C10.3833 5.28958 10.5 5.875 10.5 6.5C10.5 7.125 10.3833 7.71041 10.15 8.25625C9.91667 8.80208 9.59583 9.27916 9.1875 9.6875C8.77917 10.0958 8.30208 10.4167 7.75625 10.65C7.21042 10.8833 6.625 11 6 11Z"
    fill="black"
  />
  </svg>
